# xmcd
#
# Track frame offsets: 
#        150
#        22031
#        40012
#        56927
#        74153
#        92783
#        111195
#        127155
#        143113
#        168441
#
# Disc length: 2559 seconds
#
# Revision: 0
# Processed by: cddbd v1.5.2PL0 Copyright (c) Steve Scherf et al.
# Submitted via: ExactAudioCopy v0.99pb3
#
DISCID=9909fd0a
DTITLE=George Thorogood and The Destroyers - The Best of George Thorogoo
DTITLE=d and The Destroyers
DYEAR=2005
DGENRE=
TTITLE0=Bad To The Bone
TTITLE1=No Particular Place To Go
TTITLE2=I'm A Steady Rollin' Man
TTITLE3=Hello Little Girl
TTITLE4=Get A Haircut
TTITLE5=Willie And The Hand Jive
TTITLE6=Treat Her Right
TTITLE7=Born To Be Bad
TTITLE8=Reelin' and Rockin [live]
TTITLE9=Who Do You Love? [live]
EXTD=
EXTT0=
EXTT1=
EXTT2=
EXTT3=
EXTT4=
EXTT5=
EXTT6=
EXTT7=
EXTT8=
EXTT9=
PLAYORDER=
